<?xml version="1.0" standalone="no"?><!DOCTYPE svg PUBLIC "-//W3C//DTD SVG 20010904//EN"
    "http://www.w3.org/TR/2001/REC-SVG-20010904/DTD/svg10.dtd">
<svg height="1024.000000pt" preserveAspectRatio="xMidYMid meet" version="1.0"
    viewBox="0 0 1024.000000 1024.000000" width="1024.000000pt" xmlns="http://www.w3.org/2000/svg">
    <metadata>
        Created by potrace 1.16, written by Peter Selinger 2001-2019
    </metadata>
    <g fill="#000000" stroke="none"
        transform="translate(0.000000,1024.000000) scale(0.100000,-0.100000)">
        <path d="M6995 9369 c-370 -25 -735 -112 -1005 -240 -333 -159 -591 -426 -700
-728 -70 -193 -75 -233 -75 -676 0 -289 -4 -426 -14 -493 -8 -52 -17 -88 -21
-80 -4 7 -15 67 -25 133 -56 388 -144 703 -260 936 -245 491 -708 793 -1332
868 -69 9 -90 16 -145 51 -133 87 -295 151 -474 187 -137 27 -422 25 -573 -5
-644 -129 -1212 -594 -1405 -1150 -67 -192 -81 -287 -81 -542 0 -177 4 -244
18 -315 27 -134 70 -293 122 -455 26 -80 78 -258 116 -396 80 -294 116 -398
174 -514 231 -457 727 -726 1253 -681 l102 9 94 -38 c109 -45 204 -74 320 -99
l81 -18 -205 -7 c-587 -20 -856 -68 -1120 -201 -288 -146 -515 -408 -614 -710
-38 -118 -62 -242 -96 -511 -29 -228 -49 -328 -134 -688 -57 -240 -69 -347
-63 -563 6 -250 45 -418 138 -604 219 -438 712 -744 1329 -825 167 -22 453
-15 630 15 197 34 814 176 935 216 250 82 424 185 580 340 108 108 179 209
245 348 83 173 121 328 169 692 17 127 47 329 65 450 19 121 40 267 46 325 21
194 17 188 56 85 119 -311 138 -396 165 -735 21 -269 37 -377 75 -520 80 -296
212 -542 392 -731 334 -352 771 -479 1648 -479 269 0 398 9 562 41 311 60 536
182 757 410 308 318 504 707 572 1139 23 147 23 582 -1 773 -74 608 -226 988
-516 1290 -159 166 -327 277 -523 346 -179 63 -329 82 -792 101 -250 10 -425
27 -425 42 0 4 12 8 27 8 72 0 771 113 960 156 363 81 592 200 818 428 126
127 205 235 274 372 154 308 220 664 222 1199 2 319 -16 507 -66 712 -117 481
-446 872 -927 1103 -388 186 -844 263 -1353 229z m-1760 -3567 c20 -37 59 -97
86 -135 l49 -67 0 -115 0 -115 123 0 124 0 83 -49 c46 -28 123 -65 171 -83 49
-18 89 -35 89 -38 0 -3 -37 -16 -83 -30 -304 -91 -583 -325 -728 -613 -50 -97
-94 -230 -110 -324 l-12 -72 -41 103 c-23 56 -58 131 -79 165 l-37 62 0 190 0
189 -189 0 -190 0 -59 35 c-131 79 -314 141 -507 173 l-110 19 99 12 c245 31
485 114 664 227 52 34 53 34 172 34 l120 0 0 106 0 106 65 86 c67 89 164 267
186 342 l13 41 32 -90 c18 -50 49 -121 69 -159z" />
    </g>
</svg>
