<?xml version="1.0" encoding="utf-8"?><!-- Svg Vector Icons : http://www.onlinewebfonts.com/icon -->
<!DOCTYPE svg PUBLIC "-//W3C//DTD SVG 1.1//EN" "http://www.w3.org/Graphics/SVG/1.1/DTD/svg11.dtd">
<svg enable-background="new 0 0 1000 1000" version="1.1" viewBox="0 0 1000 1000" x="0px"
    xmlns="http://www.w3.org/2000/svg" y="0px" xml:space="preserve">
<metadata> Svg Vector Icons : http://www.onlinewebfonts.com/icon </metadata>
    <g><path d="M236.2,64c46,0,89.2,17.9,121.7,50.4c32.5,32.5,50.4,75.7,50.4,121.7v172.1H236.2c-46,0-89.2-17.9-121.7-50.4C81.9,325.4,64,282.1,64,236.2c0-46,17.9-89.2,50.4-121.7C147,81.9,190.2,64,236.2,64 M236.3,10C111.3,10,10,111.3,10,236.3c0,125,101.3,226.3,226.3,226.3h175.3c28.2,0,51-22.8,51-51V236.3C462.6,111.3,361.3,10,236.3,10L236.3,10L236.3,10L236.3,10z M236.8,594.7L236.8,594.7h168.5v168.5c0,45-17.5,87.3-49.4,119.2c-31.8,31.8-74.2,49.4-119.2,49.4c-45,0-87.3-17.5-119.2-49.4c-31.8-31.8-49.4-74.1-49.4-119.2c0-45,17.5-87.3,49.4-119.2C149.5,612.2,191.8,594.7,236.8,594.7 M236.3,537.4C111.3,537.4,10,638.7,10,763.7C10,888.7,111.3,990,236.3,990c125,0,226.3-101.3,226.3-226.3V588.4c0-28.2-22.8-51-51-51H236.3L236.3,537.4L236.3,537.4L236.3,537.4z M766,63.2c45.6,0,88.6,17.8,120.8,50.1c32.3,32.3,50.1,75.2,50.1,120.8c0,45.6-17.8,88.6-50.1,120.8c-32.3,32.3-75.2,50-120.8,50H595.1V234c0-45.6,17.8-88.6,50-120.8C677.4,80.9,720.3,63.2,766,63.2 M763.7,10c-125,0-226.3,101.3-226.3,226.3v175.3c0,28.2,22.8,51,51,51h175.3c125,0,226.3-101.3,226.3-226.3C990,111.3,888.7,10,763.7,10L763.7,10L763.7,10L763.7,10z M763.7,593.9L763.7,593.9c45.3,0,88,17.7,120,49.7c32.1,32.1,49.7,74.7,49.7,120c0,45.3-17.6,88-49.7,120c-32.1,32.1-74.7,49.7-120,49.7c-45.3,0-88-17.6-120-49.7c-32.1-32.1-49.7-74.7-49.7-120V593.9H763.7 M763.7,537.4H588.4c-28.2,0-51,22.8-51,51v175.3c0,125,101.3,226.3,226.3,226.3c125,0,226.3-101.3,226.3-226.3C990,638.7,888.7,537.4,763.7,537.4L763.7,537.4L763.7,537.4L763.7,537.4z"/></g>
</svg>