<?xml version="1.0" standalone="no"?><!DOCTYPE svg PUBLIC "-//W3C//DTD SVG 20010904//EN"
    "http://www.w3.org/TR/2001/REC-SVG-20010904/DTD/svg10.dtd">
<svg height="1024.000000pt" preserveAspectRatio="xMidYMid meet" version="1.0"
    viewBox="0 0 1024.000000 1024.000000" width="1024.000000pt" xmlns="http://www.w3.org/2000/svg">
    <metadata>
        Created by potrace 1.16, written by Peter Selinger 2001-2019
    </metadata>
    <g fill="#000000" stroke="none"
        transform="translate(0.000000,1024.000000) scale(0.100000,-0.100000)">
        <path d="M2295 9040 c-3 -5 -26 -10 -50 -10 -24 0 -47 -4 -50 -10 -3 -5 -21
-10 -40 -10 -19 0 -37 -4 -40 -10 -3 -5 -17 -10 -30 -10 -13 0 -27 -4 -30 -10
-3 -5 -15 -10 -26 -10 -10 0 -19 -4 -19 -10 0 -5 -11 -10 -24 -10 -14 0 -28
-4 -31 -10 -3 -5 -15 -10 -26 -10 -10 0 -19 -4 -19 -9 0 -5 -8 -11 -17 -14
-18 -6 -73 -37 -83 -47 -3 -3 -17 -11 -32 -19 -16 -8 -28 -18 -28 -23 0 -4 -6
-8 -13 -8 -32 0 -307 -273 -307 -305 0 -6 -9 -17 -20 -25 -11 -8 -20 -22 -20
-31 0 -10 -3 -19 -7 -21 -10 -4 -42 -57 -50 -80 -3 -10 -9 -18 -14 -18 -5 0
-9 -9 -9 -19 0 -11 -4 -23 -10 -26 -5 -3 -10 -17 -10 -31 0 -13 -4 -24 -10
-24 -5 0 -10 -9 -10 -19 0 -11 -4 -23 -10 -26 -5 -3 -10 -17 -10 -30 0 -13 -5
-27 -10 -30 -5 -3 -10 -22 -10 -41 0 -19 -4 -34 -10 -34 -5 0 -10 -22 -10 -49
0 -28 -5 -53 -10 -56 -14 -9 -14 -1461 0 -1470 6 -3 10 -28 10 -56 0 -27 5
-49 10 -49 6 0 10 -15 10 -34 0 -19 5 -38 10 -41 6 -3 10 -17 10 -30 0 -13 5
-27 10 -30 6 -3 10 -15 10 -26 0 -10 5 -19 10 -19 6 0 10 -11 10 -24 0 -14 5
-28 10 -31 6 -3 10 -15 10 -26 0 -10 5 -19 10 -19 6 0 10 -9 10 -20 0 -11 5
-20 10 -20 6 0 10 -6 10 -13 0 -7 9 -23 20 -35 11 -12 20 -27 20 -34 0 -8 9
-20 20 -28 11 -8 20 -21 20 -28 0 -8 13 -26 28 -40 15 -15 39 -43 52 -62 31
-45 75 -89 120 -120 19 -13 47 -37 62 -52 14 -15 32 -28 40 -28 7 0 20 -9 28
-20 8 -11 20 -20 28 -20 7 0 22 -9 34 -20 12 -11 28 -20 35 -20 7 0 13 -4 13
-10 0 -5 9 -10 20 -10 11 0 20 -4 20 -10 0 -5 9 -10 20 -10 11 0 20 -4 20 -10
0 -5 9 -10 19 -10 11 0 23 -4 26 -10 3 -5 17 -10 31 -10 13 0 24 -4 24 -10 0
-5 14 -10 30 -10 17 0 30 -4 30 -10 0 -5 18 -10 40 -10 22 0 40 -4 40 -10 0
-5 20 -10 44 -10 25 0 48 -4 51 -10 4 -7 447 -10 1296 -10 l1289 0 0 1289 c0
849 -3 1292 -10 1296 -5 3 -10 26 -10 51 0 24 -4 44 -10 44 -5 0 -10 18 -10
40 0 22 -4 40 -10 40 -5 0 -10 14 -10 30 0 17 -4 30 -10 30 -5 0 -10 11 -10
24 0 14 -4 28 -10 31 -5 3 -10 15 -10 26 0 10 -4 19 -10 19 -5 0 -10 9 -10 20
0 11 -4 20 -10 20 -5 0 -10 9 -10 20 0 11 -4 20 -10 20 -5 0 -10 6 -10 13 0 7
-9 23 -20 35 -11 12 -20 27 -20 34 0 8 -9 20 -20 28 -11 8 -20 21 -20 28 0 8
-13 26 -28 40 -15 15 -39 43 -52 62 -31 45 -75 89 -120 120 -19 13 -47 37 -62
52 -14 15 -32 28 -40 28 -7 0 -20 9 -28 20 -8 11 -20 20 -28 20 -7 0 -22 9
-34 20 -12 11 -28 20 -35 20 -7 0 -13 5 -13 10 0 6 -9 10 -20 10 -11 0 -20 5
-20 10 0 6 -7 10 -15 10 -8 0 -24 5 -35 10 -11 6 -29 15 -40 20 -11 6 -27 10
-35 10 -8 0 -15 5 -15 10 0 6 -13 10 -29 10 -17 0 -33 5 -36 10 -3 6 -22 10
-41 10 -19 0 -34 5 -34 10 0 6 -22 10 -49 10 -28 0 -53 5 -56 10 -4 7 -260 10
-735 10 -475 0 -731 -3 -735 -10z m1395 -560 c0 -5 18 -10 40 -10 22 0 40 -4
40 -10 0 -5 14 -10 30 -10 17 0 30 -4 30 -10 0 -5 9 -10 20 -10 11 0 20 -4 20
-10 0 -5 9 -10 20 -10 11 0 20 -4 20 -10 0 -5 9 -10 20 -10 11 0 20 -4 20 -8
0 -5 12 -15 27 -23 36 -18 184 -166 202 -202 8 -15 18 -27 23 -27 4 0 8 -9 8
-20 0 -11 5 -20 10 -20 6 0 10 -9 10 -20 0 -11 5 -20 10 -20 6 0 10 -9 10 -20
0 -11 5 -20 10 -20 6 0 10 -13 10 -30 0 -16 5 -30 10 -30 6 0 10 -15 10 -34 0
-19 5 -38 10 -41 7 -4 10 -340 10 -976 l0 -969 -969 0 c-636 0 -972 3 -976 10
-3 6 -22 10 -41 10 -19 0 -34 5 -34 10 0 6 -13 10 -30 10 -16 0 -30 5 -30 10
0 6 -9 10 -20 10 -11 0 -20 5 -20 10 0 6 -9 10 -20 10 -11 0 -20 5 -20 10 0 6
-8 10 -18 10 -10 0 -24 9 -32 20 -8 11 -20 20 -27 20 -17 0 -183 166 -183 183
0 7 -9 19 -20 27 -11 8 -20 22 -20 32 0 10 -4 18 -10 18 -5 0 -10 9 -10 20 0
11 -4 20 -10 20 -5 0 -10 9 -10 20 0 11 -4 20 -10 20 -5 0 -10 14 -10 30 0 17
-4 30 -10 30 -5 0 -10 18 -10 40 0 22 -4 40 -10 40 -7 0 -10 227 -10 660 0
433 3 660 10 660 6 0 10 18 10 40 0 22 5 40 10 40 6 0 10 11 10 24 0 14 5 28
10 31 6 3 10 15 10 26 0 10 5 19 10 19 6 0 10 9 10 20 0 11 5 20 10 20 6 0 10
6 10 13 0 7 9 23 20 35 11 12 20 26 20 31 0 15 169 181 183 181 7 0 19 9 27
20 8 11 22 20 32 20 10 0 18 5 18 10 0 6 9 10 20 10 11 0 20 5 20 10 0 6 9 10
20 10 11 0 20 5 20 10 0 6 14 10 30 10 17 0 30 5 30 10 0 6 18 10 40 10 22 0
40 5 40 10 0 7 227 10 660 10 433 0 660 -3 660 -10z" />
        <path d="M6470 9040 c0 -5 -22 -10 -50 -10 -27 0 -50 -4 -50 -10 0 -5 -15 -10
-34 -10 -19 0 -38 -4 -41 -10 -3 -5 -19 -10 -36 -10 -16 0 -29 -4 -29 -10 0
-5 -9 -10 -19 -10 -11 0 -23 -4 -26 -10 -3 -5 -17 -10 -31 -10 -13 0 -24 -4
-24 -10 0 -5 -9 -10 -20 -10 -11 0 -20 -4 -20 -10 0 -5 -9 -10 -20 -10 -11 0
-20 -4 -20 -10 0 -5 -6 -10 -13 -10 -7 0 -23 -9 -35 -20 -12 -11 -27 -20 -34
-20 -8 0 -20 -9 -28 -20 -8 -11 -20 -20 -27 -20 -7 0 -32 -18 -54 -40 -23 -22
-46 -40 -51 -40 -12 0 -138 -129 -138 -142 0 -6 -12 -22 -28 -36 -15 -15 -33
-39 -41 -54 -8 -16 -18 -28 -23 -28 -4 0 -8 -6 -8 -13 0 -7 -9 -23 -20 -35
-11 -12 -20 -28 -20 -37 0 -8 -4 -15 -10 -15 -5 0 -10 -9 -10 -20 0 -11 -4
-20 -10 -20 -5 0 -10 -9 -10 -20 0 -11 -4 -20 -10 -20 -5 0 -10 -9 -10 -19 0
-11 -4 -23 -10 -26 -5 -3 -10 -17 -10 -31 0 -13 -4 -24 -10 -24 -5 0 -10 -13
-10 -30 0 -16 -4 -30 -10 -30 -5 0 -10 -15 -10 -34 0 -19 -4 -38 -10 -41 -5
-3 -10 -24 -10 -45 0 -21 -4 -42 -10 -45 -7 -4 -10 -448 -10 -1301 l0 -1294
1290 0 c853 0 1290 3 1290 10 0 6 23 10 50 10 28 0 50 5 50 10 0 6 18 10 40
10 22 0 40 5 40 10 0 6 14 10 30 10 17 0 30 5 30 10 0 6 7 10 15 10 8 0 24 4
35 10 11 6 29 14 40 20 11 6 27 10 35 10 8 0 15 5 15 10 0 6 7 10 15 10 9 0
25 9 37 20 12 11 28 20 35 20 7 0 13 5 13 10 0 6 8 10 18 10 10 0 24 9 32 20
8 11 19 20 25 20 28 0 305 275 305 302 0 5 9 18 20 30 11 12 20 28 20 35 0 7
5 13 10 13 6 0 10 9 10 20 0 11 4 20 8 20 5 0 19 21 32 48 12 26 26 55 31 64
5 10 9 25 9 33 0 8 5 15 10 15 6 0 10 11 10 24 0 14 5 28 10 31 6 3 10 17 10
30 0 13 5 27 10 30 6 3 10 19 10 35 0 16 5 32 10 35 6 3 10 31 10 61 0 30 5
54 10 54 7 0 10 246 10 719 0 469 -3 722 -10 726 -5 3 -10 28 -10 55 0 27 -4
52 -10 55 -5 3 -10 19 -10 35 0 16 -4 32 -10 35 -5 3 -10 17 -10 30 0 13 -4
27 -10 30 -5 3 -10 17 -10 31 0 13 -4 24 -10 24 -5 0 -10 7 -10 15 0 8 -4 23
-9 33 -5 9 -19 38 -31 65 -13 26 -27 47 -32 47 -4 0 -8 9 -8 20 0 11 -4 20
-10 20 -5 0 -10 6 -10 13 0 7 -9 23 -20 35 -11 12 -20 25 -20 30 0 29 -277
302 -307 302 -7 0 -13 4 -13 8 0 5 -12 15 -27 23 -16 8 -30 16 -33 19 -19 19
-161 90 -181 90 -10 0 -19 5 -19 10 0 6 -9 10 -19 10 -11 0 -23 5 -26 10 -3 6
-17 10 -30 10 -13 0 -27 5 -30 10 -3 6 -21 10 -40 10 -19 0 -37 5 -40 10 -3 6
-26 10 -50 10 -24 0 -47 5 -50 10 -4 7 -262 10 -741 10 -483 0 -734 -3 -734
-10z m1400 -560 c0 -5 18 -10 40 -10 22 0 40 -4 40 -10 0 -5 11 -10 24 -10 14
0 28 -4 31 -10 3 -5 15 -10 26 -10 10 0 19 -4 19 -10 0 -5 9 -10 20 -10 11 0
20 -4 20 -10 0 -5 8 -10 18 -10 10 0 24 -9 32 -20 8 -11 20 -20 27 -20 16 0
183 -167 183 -183 0 -7 9 -19 20 -27 11 -8 20 -22 20 -32 0 -10 5 -18 10 -18
6 0 10 -9 10 -20 0 -11 5 -20 10 -20 6 0 10 -9 10 -20 0 -11 5 -20 10 -20 6 0
10 -13 10 -30 0 -16 5 -30 10 -30 6 0 10 -18 10 -40 0 -22 5 -40 10 -40 7 0
10 -227 10 -660 0 -433 -3 -660 -10 -660 -5 0 -10 -18 -10 -40 0 -22 -4 -40
-10 -40 -5 0 -10 -13 -10 -30 0 -16 -4 -30 -10 -30 -5 0 -10 -9 -10 -20 0 -11
-4 -20 -10 -20 -5 0 -10 -9 -10 -20 0 -11 -4 -20 -10 -20 -5 0 -10 -8 -10 -18
0 -10 -9 -24 -20 -32 -11 -8 -20 -20 -20 -27 0 -17 -157 -174 -193 -192 -15
-8 -27 -18 -27 -23 0 -4 -9 -8 -20 -8 -11 0 -20 -4 -20 -10 0 -5 -9 -10 -20
-10 -11 0 -20 -4 -20 -10 0 -5 -9 -10 -20 -10 -11 0 -20 -4 -20 -10 0 -5 -11
-10 -24 -10 -14 0 -28 -4 -31 -10 -3 -5 -19 -10 -35 -10 -16 0 -32 -4 -35 -10
-4 -7 -342 -10 -981 -10 l-974 0 0 974 c0 639 3 977 10 981 6 3 10 19 10 35 0
16 5 32 10 35 6 3 10 17 10 31 0 13 5 24 10 24 6 0 10 9 10 20 0 11 5 20 10
20 6 0 10 9 10 20 0 11 5 20 10 20 6 0 10 9 10 20 0 11 4 20 8 20 5 0 15 12
23 27 18 36 175 193 192 193 7 0 19 9 27 20 8 11 22 20 32 20 10 0 18 5 18 10
0 6 9 10 20 10 11 0 20 5 20 10 0 6 9 10 20 10 11 0 20 5 20 10 0 6 14 10 30
10 17 0 30 5 30 10 0 6 18 10 40 10 22 0 40 5 40 10 0 7 227 10 660 10 433 0
660 -3 660 -10z" />
        <path d="M2275 4860 c-3 -5 -24 -10 -45 -10 -21 0 -42 -4 -45 -10 -3 -5 -22
-10 -41 -10 -19 0 -34 -4 -34 -10 0 -5 -13 -10 -30 -10 -16 0 -30 -4 -30 -10
0 -5 -11 -10 -24 -10 -14 0 -28 -4 -31 -10 -3 -5 -15 -10 -26 -10 -10 0 -19
-4 -19 -10 0 -5 -9 -10 -20 -10 -11 0 -20 -4 -20 -10 0 -5 -9 -10 -20 -10 -11
0 -20 -4 -20 -10 0 -5 -8 -10 -18 -10 -10 0 -24 -9 -32 -20 -8 -11 -21 -20
-30 -20 -9 0 -22 -9 -30 -20 -8 -11 -21 -20 -28 -20 -8 0 -26 -13 -40 -28 -15
-15 -43 -39 -62 -52 -45 -31 -89 -75 -120 -120 -13 -19 -37 -47 -52 -62 -15
-14 -28 -32 -28 -40 0 -7 -9 -20 -20 -28 -11 -8 -20 -20 -20 -28 0 -7 -9 -22
-20 -34 -11 -12 -20 -28 -20 -35 0 -7 -4 -13 -10 -13 -5 0 -10 -9 -10 -20 0
-11 -4 -20 -10 -20 -5 0 -10 -9 -10 -20 0 -11 -4 -20 -10 -20 -5 0 -10 -11
-10 -24 0 -14 -4 -28 -10 -31 -5 -3 -10 -15 -10 -26 0 -10 -4 -19 -10 -19 -5
0 -10 -13 -10 -29 0 -17 -4 -33 -10 -36 -5 -3 -10 -22 -10 -41 0 -19 -4 -34
-10 -34 -5 0 -10 -22 -10 -50 0 -27 -4 -50 -10 -50 -7 0 -10 -251 -10 -734 0
-479 3 -737 10 -741 6 -3 10 -26 10 -50 0 -24 5 -47 10 -50 6 -3 10 -21 10
-40 0 -19 5 -37 10 -40 6 -3 10 -17 10 -30 0 -13 5 -27 10 -30 6 -3 10 -15 10
-26 0 -10 5 -19 10 -19 6 0 10 -9 10 -19 0 -20 71 -162 90 -181 3 -3 11 -17
19 -32 8 -16 18 -28 23 -28 4 0 8 -6 8 -13 0 -30 273 -307 302 -307 5 0 18 -9
30 -20 12 -11 28 -20 35 -20 7 0 13 -4 13 -10 0 -5 9 -10 20 -10 11 0 20 -4
20 -8 0 -5 21 -19 48 -32 26 -12 55 -26 64 -31 10 -5 25 -9 33 -9 8 0 15 -4
15 -10 0 -5 9 -10 19 -10 11 0 23 -4 26 -10 3 -5 19 -10 35 -10 16 0 32 -5 35
-10 3 -6 19 -10 35 -10 16 0 32 -4 35 -10 3 -5 28 -10 55 -10 27 0 52 -5 55
-10 9 -14 1451 -14 1460 0 3 5 26 10 50 10 24 0 47 5 50 10 3 6 21 10 40 10
19 0 37 5 40 10 3 5 17 10 30 10 13 0 27 5 30 10 3 6 15 10 26 10 10 0 19 5
19 10 0 6 11 10 24 10 14 0 28 5 31 10 3 6 15 10 26 10 10 0 19 5 19 10 0 6 7
10 15 10 9 0 25 9 37 20 12 11 28 20 35 20 7 0 13 5 13 10 0 6 8 10 18 10 10
0 24 9 32 20 8 11 20 20 26 20 6 0 24 12 40 28 16 15 45 39 64 53 51 39 93 80
120 119 13 19 37 47 52 62 15 14 28 32 28 40 0 7 9 20 20 28 11 8 20 20 20 28
0 7 9 22 20 34 11 12 20 28 20 35 0 7 5 13 10 13 6 0 10 9 10 20 0 11 5 20 10
20 6 0 10 9 10 20 0 11 5 20 10 20 6 0 10 9 10 19 0 11 5 23 10 26 6 3 10 17
10 31 0 13 5 24 10 24 6 0 10 14 10 30 0 17 5 30 10 30 6 0 10 18 10 40 0 22
5 40 10 40 6 0 10 20 10 44 0 25 5 48 10 51 7 4 10 447 10 1296 l0 1289 -1294
0 c-853 0 -1297 -3 -1301 -10z m2035 -1519 c0 -636 -3 -972 -10 -976 -5 -3
-10 -22 -10 -41 0 -19 -4 -34 -10 -34 -5 0 -10 -13 -10 -30 0 -16 -4 -30 -10
-30 -5 0 -10 -9 -10 -20 0 -11 -4 -20 -10 -20 -5 0 -10 -9 -10 -20 0 -11 -4
-20 -10 -20 -5 0 -10 -8 -10 -18 0 -10 -9 -24 -20 -32 -11 -8 -20 -20 -20 -27
0 -17 -166 -183 -183 -183 -7 0 -19 -9 -27 -20 -8 -11 -22 -20 -32 -20 -10 0
-18 -4 -18 -10 0 -5 -9 -10 -20 -10 -11 0 -20 -4 -20 -10 0 -5 -9 -10 -20 -10
-11 0 -20 -4 -20 -10 0 -5 -13 -10 -30 -10 -16 0 -30 -4 -30 -10 0 -5 -18 -10
-40 -10 -22 0 -40 -4 -40 -10 0 -14 -1306 -14 -1315 0 -3 5 -24 10 -46 10 -21
0 -39 5 -39 10 0 6 -11 10 -24 10 -14 0 -28 5 -31 10 -3 5 -15 10 -26 10 -10
0 -19 5 -19 10 0 6 -9 10 -20 10 -11 0 -20 5 -20 10 0 6 -6 10 -13 10 -7 0
-23 9 -35 20 -12 11 -26 20 -31 20 -13 0 -181 168 -181 181 0 5 -9 19 -20 31
-11 12 -20 28 -20 35 0 7 -4 13 -10 13 -5 0 -10 9 -10 20 0 11 -4 20 -10 20
-5 0 -10 9 -10 19 0 11 -4 23 -10 26 -5 3 -10 17 -10 31 0 13 -4 24 -10 24 -5
0 -10 18 -10 40 0 22 -4 40 -10 40 -7 0 -10 227 -10 660 0 433 3 660 10 660 6
0 10 18 10 40 0 22 5 40 10 40 6 0 10 14 10 30 0 17 5 30 10 30 6 0 10 9 10
20 0 11 5 20 10 20 6 0 10 9 10 20 0 11 5 20 10 20 6 0 10 9 10 20 0 11 4 20
8 20 5 0 15 12 23 27 18 36 166 184 202 202 15 8 27 18 27 23 0 4 9 8 20 8 11
0 20 3 20 8 0 8 49 32 67 32 7 0 13 5 13 10 0 6 11 10 24 10 14 0 28 5 31 10
3 6 19 10 36 10 16 0 29 5 29 10 0 7 333 10 980 10 l980 0 0 -969z" />
        <path d="M5370 3576 c0 -853 3 -1297 10 -1301 6 -3 10 -24 10 -45 0 -21 5 -42
10 -45 6 -3 10 -22 10 -41 0 -19 5 -34 10 -34 6 0 10 -13 10 -30 0 -16 5 -30
10 -30 6 0 10 -11 10 -24 0 -14 5 -28 10 -31 6 -3 10 -15 10 -26 0 -10 5 -19
10 -19 6 0 10 -9 10 -20 0 -11 5 -20 10 -20 6 0 10 -9 10 -20 0 -11 5 -20 10
-20 6 0 10 -6 10 -13 0 -7 9 -23 20 -35 11 -12 20 -27 20 -34 0 -8 9 -20 20
-28 11 -8 20 -21 20 -28 0 -8 13 -26 28 -40 15 -15 39 -43 52 -62 31 -45 75
-89 120 -120 19 -13 47 -37 62 -52 14 -15 32 -28 40 -28 7 0 20 -9 28 -20 8
-11 20 -20 28 -20 7 0 22 -9 34 -20 12 -11 28 -20 35 -20 7 0 13 -4 13 -10 0
-5 9 -10 20 -10 11 0 20 -4 20 -10 0 -5 9 -10 19 -10 11 0 23 -4 26 -10 3 -5
17 -10 31 -10 13 0 24 -4 24 -10 0 -5 9 -10 19 -10 11 0 23 -4 26 -10 3 -5 17
-10 30 -10 13 0 27 -4 30 -10 3 -5 22 -10 41 -10 19 0 34 -4 34 -10 0 -5 22
-10 49 -10 28 0 53 -5 56 -10 9 -14 1451 -14 1460 0 3 6 28 10 55 10 27 0 52
5 55 10 3 6 19 10 35 10 16 0 32 5 35 10 3 6 17 10 30 10 13 0 27 4 30 10 3 5
17 10 31 10 13 0 24 5 24 10 0 6 7 10 15 10 8 0 23 4 33 9 9 5 38 19 65 31 26
13 47 27 47 32 0 4 9 8 20 8 11 0 20 5 20 10 0 6 6 10 13 10 6 0 28 14 47 30
19 16 38 30 42 30 19 0 258 239 258 258 0 4 14 23 30 42 16 19 30 41 30 48 0
6 5 12 10 12 6 0 10 9 10 20 0 11 4 20 9 20 5 0 11 8 14 18 3 9 13 31 23 47
27 48 34 64 34 80 0 8 5 15 10 15 6 0 10 11 10 24 0 14 5 28 10 31 6 3 10 19
10 36 0 16 5 29 10 29 6 0 10 15 10 34 0 19 5 38 10 41 6 3 10 28 10 56 0 27
5 49 10 49 7 0 10 246 10 719 0 469 -3 722 -10 726 -5 3 -10 28 -10 55 0 27
-4 52 -10 55 -5 3 -10 21 -10 40 0 19 -4 37 -10 40 -5 3 -10 17 -10 30 0 13
-4 27 -10 30 -5 3 -10 15 -10 26 0 10 -4 19 -10 19 -5 0 -10 11 -10 24 0 14
-4 28 -10 31 -5 3 -10 15 -10 26 0 10 -4 19 -10 19 -5 0 -10 9 -10 20 0 11 -4
20 -10 20 -5 0 -10 6 -10 13 0 7 -9 23 -20 35 -11 12 -20 27 -20 34 0 8 -9 20
-20 28 -11 8 -20 20 -20 26 0 6 -12 24 -28 40 -15 16 -38 45 -52 64 -32 45
-76 89 -120 120 -19 13 -47 37 -62 52 -14 15 -32 28 -40 28 -7 0 -20 9 -28 20
-8 11 -20 20 -28 20 -7 0 -22 9 -34 20 -12 11 -28 20 -35 20 -7 0 -13 5 -13
10 0 6 -9 10 -20 10 -11 0 -20 5 -20 10 0 6 -9 10 -20 10 -11 0 -20 5 -20 10
0 6 -9 10 -19 10 -11 0 -23 5 -26 10 -3 6 -17 10 -31 10 -13 0 -24 5 -24 10 0
6 -13 10 -30 10 -16 0 -30 5 -30 10 0 6 -15 10 -34 10 -19 0 -38 5 -41 10 -3
6 -24 10 -45 10 -21 0 -42 5 -45 10 -4 7 -448 10 -1301 10 l-1294 0 0 -1294z
m2515 724 c3 -5 19 -10 36 -10 16 0 29 -4 29 -10 0 -5 14 -10 30 -10 17 0 30
-4 30 -10 0 -5 9 -10 20 -10 11 0 20 -4 20 -10 0 -5 9 -10 20 -10 11 0 20 -4
20 -10 0 -5 9 -10 20 -10 11 0 20 -4 20 -8 0 -5 12 -15 27 -23 36 -18 193
-175 193 -192 0 -7 9 -19 20 -27 11 -8 20 -22 20 -32 0 -10 5 -18 10 -18 6 0
10 -9 10 -20 0 -11 5 -20 10 -20 6 0 10 -9 10 -20 0 -11 5 -20 10 -20 6 0 10
-13 10 -30 0 -16 5 -30 10 -30 6 0 10 -18 10 -40 0 -22 5 -40 10 -40 7 0 10
-225 10 -654 0 -426 -3 -657 -10 -661 -5 -3 -10 -24 -10 -46 0 -21 -4 -39 -10
-39 -5 0 -10 -11 -10 -24 0 -14 -4 -28 -10 -31 -5 -3 -10 -15 -10 -26 0 -10
-4 -19 -10 -19 -5 0 -10 -9 -10 -20 0 -11 -4 -20 -10 -20 -5 0 -10 -6 -10 -12
0 -7 -14 -29 -30 -48 -16 -19 -30 -38 -30 -43 0 -10 -127 -137 -137 -137 -5 0
-24 -14 -43 -30 -19 -16 -41 -30 -47 -30 -7 0 -13 -4 -13 -10 0 -5 -9 -10 -20
-10 -11 0 -20 -4 -20 -10 0 -5 -9 -10 -19 -10 -11 0 -23 -4 -26 -10 -3 -5 -17
-10 -31 -10 -13 0 -24 -4 -24 -10 0 -5 -18 -10 -39 -10 -22 0 -43 -4 -46 -10
-9 -14 -1315 -14 -1315 0 0 6 -18 10 -40 10 -22 0 -40 5 -40 10 0 6 -13 10
-30 10 -16 0 -30 5 -30 10 0 6 -9 10 -20 10 -11 0 -20 5 -20 10 0 6 -9 10 -20
10 -11 0 -20 5 -20 10 0 6 -8 10 -18 10 -10 0 -24 9 -32 20 -8 11 -20 20 -27
20 -17 0 -174 157 -192 193 -8 15 -18 27 -23 27 -4 0 -8 9 -8 20 0 11 -3 20
-7 20 -9 0 -33 49 -33 67 0 7 -4 13 -10 13 -5 0 -10 11 -10 24 0 14 -4 28 -10
31 -5 3 -10 19 -10 36 0 16 -4 29 -10 29 -7 0 -10 333 -10 980 l0 980 974 0
c639 0 977 -3 981 -10z" />
    </g>
</svg>
