<?xml version="1.0" standalone="no"?><!DOCTYPE svg PUBLIC "-//W3C//DTD SVG 20010904//EN"
    "http://www.w3.org/TR/2001/REC-SVG-20010904/DTD/svg10.dtd">
<svg height="512.000000pt" preserveAspectRatio="xMidYMid meet" version="1.0"
    viewBox="0 0 512.000000 512.000000" width="512.000000pt" xmlns="http://www.w3.org/2000/svg">
    <metadata>
        Created by potrace 1.16, written by Peter Selinger 2001-2019
    </metadata>
    <g fill="#000000" stroke="none"
        transform="translate(0.000000,512.000000) scale(0.100000,-0.100000)">
        <path d="M1183 4795 c-526 -95 -897 -563 -870 -1094 15 -283 125 -522 332
-719 105 -100 216 -170 345 -219 179 -67 164 -65 833 -70 l607 -4 0 553 c0
571 -5 665 -41 798 -90 329 -363 613 -689 718 -153 50 -364 65 -517 37z" />
        <path d="M3557 4795 c-233 -44 -420 -147 -585 -320 -99 -105 -170 -216 -218
-343 -67 -181 -67 -174 -71 -840 l-4 -603 608 4 c654 4 644 4 808 60 364 125
639 459 696 846 15 109 6 301 -20 406 -94 382 -386 672 -781 777 -101 27 -324
33 -433 13z m357 -355 c248 -63 453 -268 516 -516 24 -94 26 -241 5 -332 -57
-240 -235 -432 -480 -519 l-80 -28 -423 -3 -423 -3 4 418 c4 460 5 469 71 603
87 177 242 311 426 369 85 26 98 28 211 30 66 1 119 -5 173 -19z" />
        <path d="M1225 2433 c-293 -40 -573 -216 -737 -463 -166 -250 -219 -561 -144
-852 145 -569 738 -913 1307 -757 98 26 278 116 360 178 224 170 373 431 409
713 6 48 10 316 10 635 l0 553 -587 -1 c-324 -1 -601 -4 -618 -6z" />
        <path d="M2680 1898 c0 -560 6 -669 41 -798 25 -92 92 -235 149 -321 56 -82
187 -213 269 -269 434 -292 1004 -235 1361 137 215 223 312 479 297 787 -22
464 -332 850 -783 973 l-99 27 -617 4 -618 3 0 -543z" />
    </g>
</svg>
